<svg width="136" height="26" viewBox="0 0 136 26" fill="none" xmlns="http://www.w3.org/2000/svg">
<path d="M3 3V19C3 19.5304 3.21071 20.0391 3.58579 20.4142C3.96086 20.7893 4.46957 21 5 21H21" stroke="#2563EB" stroke-width="2" stroke-linecap="round" stroke-linejoin="round"/>
<path d="M18 17V9" stroke="#2563EB" stroke-width="2" stroke-linecap="round" stroke-linejoin="round"/>
<path d="M13 17V5" stroke="#2563EB" stroke-width="2" stroke-linecap="round" stroke-linejoin="round"/>
<path d="M8 17V14" stroke="#2563EB" stroke-width="2" stroke-linecap="round" stroke-linejoin="round"/>
<path d="M29.1378 6.90909H32.5511L36.1562 15.7045H36.3097L39.9148 6.90909H43.3281V20H40.6435V11.4794H40.5348L37.147 19.9361H35.3189L31.9311 11.4474H31.8224V20H29.1378V6.90909ZM50.5718 20.1918C49.5618 20.1918 48.6925 19.9872 47.9638 19.5781C47.2394 19.1648 46.6812 18.581 46.2891 17.8267C45.8971 17.0682 45.701 16.1712 45.701 15.1357C45.701 14.1257 45.8971 13.2393 46.2891 12.4766C46.6812 11.7138 47.233 11.1193 47.9447 10.6932C48.6606 10.267 49.5001 10.054 50.4631 10.054C51.1108 10.054 51.7138 10.1584 52.2721 10.3672C52.8346 10.5717 53.3246 10.8807 53.7422 11.294C54.1641 11.7074 54.4922 12.2273 54.7266 12.8537C54.961 13.4759 55.0782 14.2045 55.0782 15.0398V15.7876H46.7877V14.1001H52.515C52.515 13.7081 52.4297 13.3608 52.2593 13.0582C52.0888 12.7557 51.8523 12.5192 51.5498 12.3487C51.2515 12.174 50.9042 12.0866 50.5079 12.0866C50.0945 12.0866 49.728 12.1825 49.4084 12.3743C49.0931 12.5618 48.8459 12.8153 48.667 13.1349C48.488 13.4503 48.3964 13.8018 48.3921 14.1896V15.794C48.3921 16.2798 48.4816 16.6996 48.6606 17.0533C48.8438 17.407 49.1016 17.6797 49.434 17.8714C49.7664 18.0632 50.1606 18.1591 50.6165 18.1591C50.9191 18.1591 51.1961 18.1165 51.4475 18.0312C51.6989 17.946 51.9141 17.8182 52.0931 17.6477C52.2721 17.4773 52.4084 17.2685 52.5022 17.0213L55.0206 17.1875C54.8928 17.7926 54.6307 18.321 54.2344 18.7727C53.8424 19.2202 53.3353 19.5696 52.7131 19.821C52.0952 20.0682 51.3814 20.1918 50.5718 20.1918ZM62.6175 10.1818V12.2273H56.7048V10.1818H62.6175ZM58.0472 7.82955H60.7702V16.983C60.7702 17.2344 60.8085 17.4304 60.8852 17.571C60.9619 17.7074 61.0685 17.8033 61.2048 17.8587C61.3454 17.9141 61.5074 17.9418 61.6906 17.9418C61.8185 17.9418 61.9463 17.9311 62.0741 17.9098C62.202 17.8842 62.3 17.8651 62.3682 17.8523L62.7964 19.8786C62.6601 19.9212 62.4683 19.9702 62.2212 20.0256C61.974 20.0852 61.6736 20.1214 61.3199 20.1342C60.6636 20.1598 60.0883 20.0724 59.594 19.8722C59.104 19.6719 58.7226 19.3608 58.4499 18.9389C58.1771 18.517 58.0429 17.9844 58.0472 17.3409V7.82955ZM64.9313 20V10.1818H67.6543V20H64.9313ZM66.2992 8.91619C65.8943 8.91619 65.547 8.78196 65.2573 8.51349C64.9717 8.24077 64.829 7.91477 64.829 7.53551C64.829 7.16051 64.9717 6.83878 65.2573 6.57031C65.547 6.29758 65.8943 6.16122 66.2992 6.16122C66.704 6.16122 67.0492 6.29758 67.3347 6.57031C67.6244 6.83878 67.7693 7.16051 67.7693 7.53551C67.7693 7.91477 67.6244 8.24077 67.3347 8.51349C67.0492 8.78196 66.704 8.91619 66.2992 8.91619ZM74.8116 20.1918C73.8187 20.1918 72.9601 19.9808 72.2356 19.5589C71.5155 19.1328 70.9594 18.5405 70.5673 17.782C70.1753 17.0192 69.9792 16.1349 69.9792 15.1293C69.9792 14.1151 70.1753 13.2287 70.5673 12.4702C70.9594 11.7074 71.5155 11.1151 72.2356 10.6932C72.9601 10.267 73.8187 10.054 74.8116 10.054C75.8045 10.054 76.6611 10.267 77.3812 10.6932C78.1057 11.1151 78.6639 11.7074 79.056 12.4702C79.448 13.2287 79.644 14.1151 79.644 15.1293C79.644 16.1349 79.448 17.0192 79.056 17.782C78.6639 18.5405 78.1057 19.1328 77.3812 19.5589C76.6611 19.9808 75.8045 20.1918 74.8116 20.1918ZM74.8244 18.0824C75.2761 18.0824 75.6533 17.9545 75.9558 17.6989C76.2584 17.4389 76.4863 17.0852 76.6398 16.6378C76.7974 16.1903 76.8763 15.6811 76.8763 15.1101C76.8763 14.5391 76.7974 14.0298 76.6398 13.5824C76.4863 13.1349 76.2584 12.7812 75.9558 12.5213C75.6533 12.2614 75.2761 12.1314 74.8244 12.1314C74.3685 12.1314 73.9849 12.2614 73.6738 12.5213C73.367 12.7812 73.1348 13.1349 72.9771 13.5824C72.8237 14.0298 72.747 14.5391 72.747 15.1101C72.747 15.6811 72.8237 16.1903 72.9771 16.6378C73.1348 17.0852 73.367 17.4389 73.6738 17.6989C73.9849 17.9545 74.3685 18.0824 74.8244 18.0824ZM90.1237 12.9815L87.6308 13.1349C87.5881 12.9219 87.4965 12.7301 87.3559 12.5597C87.2153 12.3849 87.0299 12.2464 86.7998 12.1442C86.5739 12.0376 86.3033 11.9844 85.988 11.9844C85.5661 11.9844 85.2103 12.0739 84.9205 12.2528C84.6308 12.4276 84.4859 12.6619 84.4859 12.956C84.4859 13.1903 84.5796 13.3885 84.7671 13.5504C84.9546 13.7124 85.2764 13.8423 85.7323 13.9403L87.5093 14.2983C88.4639 14.4943 89.1755 14.8097 89.6442 15.2443C90.113 15.679 90.3474 16.25 90.3474 16.9574C90.3474 17.6009 90.1577 18.1655 89.7785 18.6513C89.4035 19.1371 88.8879 19.5163 88.2316 19.7891C87.5796 20.0575 86.8275 20.1918 85.9752 20.1918C84.6755 20.1918 83.64 19.9212 82.8687 19.38C82.1016 18.8345 81.6521 18.093 81.52 17.1555L84.1982 17.0149C84.2792 17.4112 84.4752 17.7138 84.7863 17.9226C85.0974 18.1271 85.4958 18.2294 85.9816 18.2294C86.4589 18.2294 86.8424 18.1378 87.1322 17.9545C87.4262 17.767 87.5754 17.5263 87.5796 17.2322C87.5754 16.9851 87.471 16.7827 87.2664 16.625C87.0619 16.4631 86.7465 16.3395 86.3204 16.2543L84.6201 15.9155C83.6613 15.7237 82.9475 15.3913 82.4788 14.9183C82.0143 14.4453 81.782 13.8423 81.782 13.1094C81.782 12.4787 81.9525 11.9354 82.2934 11.4794C82.6386 11.0234 83.1222 10.6719 83.7444 10.4247C84.3708 10.1776 85.1038 10.054 85.9433 10.054C87.1833 10.054 88.1592 10.3161 88.8708 10.8402C89.5867 11.3643 90.0043 12.0781 90.1237 12.9815Z" fill="white"/>
<path d="M103.042 13.448C103.042 15.62 102.448 17.258 101.26 18.362C100.084 19.454 98.44 20 96.328 20H92.746V7.148H96.706C98.002 7.148 99.124 7.388 100.072 7.868C101.02 8.348 101.752 9.056 102.268 9.992C102.784 10.916 103.042 12.068 103.042 13.448ZM101.332 13.502C101.332 11.786 100.906 10.532 100.054 9.74C99.214 8.936 98.02 8.534 96.472 8.534H94.366V18.614H96.112C99.592 18.614 101.332 16.91 101.332 13.502ZM114.606 15.158C114.606 16.754 114.198 17.99 113.382 18.866C112.578 19.742 111.486 20.18 110.106 20.18C109.254 20.18 108.492 19.988 107.82 19.604C107.16 19.208 106.638 18.638 106.254 17.894C105.87 17.138 105.678 16.226 105.678 15.158C105.678 13.562 106.08 12.332 106.884 11.468C107.688 10.604 108.78 10.172 110.16 10.172C111.036 10.172 111.804 10.37 112.464 10.766C113.136 11.15 113.658 11.714 114.03 12.458C114.414 13.19 114.606 14.09 114.606 15.158ZM107.316 15.158C107.316 16.298 107.538 17.204 107.982 17.876C108.438 18.536 109.158 18.866 110.142 18.866C111.114 18.866 111.828 18.536 112.284 17.876C112.74 17.204 112.968 16.298 112.968 15.158C112.968 14.018 112.74 13.124 112.284 12.476C111.828 11.828 111.108 11.504 110.124 11.504C109.14 11.504 108.426 11.828 107.982 12.476C107.538 13.124 107.316 14.018 107.316 15.158ZM121.527 20.18C120.675 20.18 119.913 20.006 119.241 19.658C118.581 19.31 118.059 18.77 117.675 18.038C117.303 17.306 117.117 16.37 117.117 15.23C117.117 14.042 117.315 13.076 117.711 12.332C118.107 11.588 118.641 11.042 119.313 10.694C119.997 10.346 120.771 10.172 121.635 10.172C122.127 10.172 122.601 10.226 123.057 10.334C123.513 10.43 123.885 10.55 124.173 10.694L123.687 12.008C123.399 11.9 123.063 11.798 122.679 11.702C122.295 11.606 121.935 11.558 121.599 11.558C119.703 11.558 118.755 12.776 118.755 15.212C118.755 16.376 118.983 17.27 119.439 17.894C119.907 18.506 120.597 18.812 121.509 18.812C122.037 18.812 122.499 18.758 122.895 18.65C123.303 18.542 123.675 18.41 124.011 18.254V19.658C123.687 19.826 123.327 19.952 122.931 20.036C122.547 20.132 122.079 20.18 121.527 20.18ZM133.127 17.336C133.127 18.272 132.779 18.98 132.083 19.46C131.387 19.94 130.451 20.18 129.275 20.18C128.603 20.18 128.021 20.126 127.529 20.018C127.049 19.91 126.623 19.76 126.251 19.568V18.128C126.635 18.32 127.097 18.5 127.637 18.668C128.189 18.824 128.747 18.902 129.311 18.902C130.115 18.902 130.697 18.776 131.057 18.524C131.417 18.26 131.597 17.912 131.597 17.48C131.597 17.24 131.531 17.024 131.399 16.832C131.267 16.64 131.027 16.448 130.679 16.256C130.343 16.064 129.857 15.848 129.221 15.608C128.597 15.368 128.063 15.128 127.619 14.888C127.175 14.648 126.833 14.36 126.593 14.024C126.353 13.688 126.233 13.256 126.233 12.728C126.233 11.912 126.563 11.282 127.223 10.838C127.895 10.394 128.771 10.172 129.851 10.172C130.439 10.172 130.985 10.232 131.489 10.352C132.005 10.46 132.485 10.616 132.929 10.82L132.389 12.08C131.981 11.912 131.555 11.768 131.111 11.648C130.667 11.528 130.211 11.468 129.743 11.468C129.095 11.468 128.597 11.576 128.249 11.792C127.913 11.996 127.745 12.278 127.745 12.638C127.745 12.902 127.823 13.13 127.979 13.322C128.135 13.502 128.393 13.682 128.753 13.862C129.125 14.03 129.617 14.234 130.229 14.474C130.841 14.702 131.363 14.936 131.795 15.176C132.227 15.416 132.557 15.71 132.785 16.058C133.013 16.394 133.127 16.82 133.127 17.336Z" fill="#9F9FA9"/>
</svg>
